<svg xmlns="http://www.w3.org/2000/svg" width="28.509" height="19.541" viewBox="0 0 28.509 19.541"><defs><style>.a{fill:none;stroke:#000;}</style></defs><path class="a" d="M20.256,15.446A3.852,3.852,0,0,0,24,11.473,3.852,3.852,0,0,0,20.256,7.5a3.862,3.862,0,0,0-3.751,3.973A3.862,3.862,0,0,0,20.256,15.446Zm-10,0a3.852,3.852,0,0,0,3.739-3.973A3.852,3.852,0,0,0,10.253,7.5,3.862,3.862,0,0,0,6.5,11.473,3.862,3.862,0,0,0,10.253,15.446Zm0,2.649c-2.913,0-8.753,1.549-8.753,4.635v3.311H19.006V22.73C19.006,19.644,13.166,18.095,10.253,18.095Zm10,0c-.363,0-.775.026-1.213.066a5.664,5.664,0,0,1,2.463,4.569v3.311h7.5V22.73C29.009,19.644,23.17,18.095,20.256,18.095Z" transform="translate(-1 -7)"/></svg>