<svg xmlns="http://www.w3.org/2000/svg" width="23.703" height="33.861" viewBox="0 0 23.703 33.861"><defs><style>.a{fill:#086cd4;}</style></defs><path class="a" d="M14.272,35.168a1.7,1.7,0,0,0,1.693,1.693h6.772a1.7,1.7,0,0,0,1.693-1.693V33.475H14.272ZM19.351,3a11.846,11.846,0,0,0-6.772,21.569V28.4a1.7,1.7,0,0,0,1.693,1.693H24.43A1.7,1.7,0,0,0,26.123,28.4V24.569A11.846,11.846,0,0,0,19.351,3Zm4.825,18.793-1.439,1.016V26.7H15.965V22.809l-1.439-1.016a8.465,8.465,0,1,1,9.65,0Z" transform="translate(-7.5 -3)"/></svg>