<svg xmlns="http://www.w3.org/2000/svg" width="36.001" height="36.001" viewBox="0 0 36.001 36.001"><defs><style>.a{fill:#086cd4;}</style></defs><path class="a" d="M24.79,9a15.874,15.874,0,0,0-5.418.9l.873-8.656A1.15,1.15,0,0,0,18.937.009,11.323,11.323,0,0,0,9,11.21a15.874,15.874,0,0,0,.9,5.418l-8.656-.873A1.15,1.15,0,0,0,.009,17.063,11.323,11.323,0,0,0,11.21,27a15.874,15.874,0,0,0,5.418-.9l-.873,8.656a1.151,1.151,0,0,0,1.307,1.239A11.323,11.323,0,0,0,27,24.79a15.874,15.874,0,0,0-.9-5.418l8.656.873a1.151,1.151,0,0,0,1.239-1.307A11.323,11.323,0,0,0,24.79,9ZM18,20.25A2.25,2.25,0,1,1,20.25,18,2.25,2.25,0,0,1,18,20.25Z" transform="translate(0 0)"/></svg>