<svg xmlns="http://www.w3.org/2000/svg" width="24.703" height="33.699" viewBox="0 0 24.703 33.699">
  <path id="Icon_material-lightbulb-outline" data-name="Icon material-lightbulb-outline" d="M14.272,34.064A1.67,1.67,0,0,0,15.965,35.7h6.772a1.67,1.67,0,0,0,1.693-1.635V32.429H14.272ZM19.351,3A11.666,11.666,0,0,0,7.5,14.445a11.332,11.332,0,0,0,5.079,9.385v3.695a1.67,1.67,0,0,0,1.693,1.635H24.43a1.67,1.67,0,0,0,1.693-1.635V23.829A11.332,11.332,0,0,0,31.2,14.445,11.666,11.666,0,0,0,19.351,3Zm4.825,18.148-1.439.981v3.76H15.965v-3.76l-1.439-.981a8.092,8.092,0,0,1-3.64-6.7A8.327,8.327,0,0,1,19.351,6.27a8.327,8.327,0,0,1,8.465,8.175A8.092,8.092,0,0,1,24.176,21.148Z" transform="translate(-7 -2.5)" fill="none" stroke="#086cd4" stroke-width="1"/>
</svg>
